# xmcd
#
# Track frame offsets:
#	150
#	16985
#	33555
#	52167
#	68035
#	88775
#	105270
#	122072
#	139955
#	157687
#	176910
#	195987
#	214412
#	235042
#	253122
#	271427
#	291315
#	312744
#	332445
#
# Disc length: 4726 seconds
#
# Revision: 0
# Processed by: cddbd v1.4PL0 Copyright (c) Steve Scherf et al.
# Submitted via: EasyCDDAExtractor 5.0.4.1
#
DISCID=1a127413
DTITLE=松田聖子 - 聖子傅
DYEAR=2000
DGENRE=JPop
TTITLE0=祼足ソ季節（祼足的季節）
TTITLE1=青ゆ珊瑚礁（蔚藍的珊瑚礁）
TTITLE2=風ゾ秋色（風是秋色）
TTITLE3=夏ソ扇（夏季的門）
TTITLE4=風立グセ（風吹起了）
TTITLE5=赤ゆЗユみЬзみ（紅色的豆蔻花）
TTITLE6=渚ソдюヵアみ（沙灘的露台）
TTITLE7=ヮьЗソ林檎（玻璃的蘋果）
TTITLE8=蒼ゆиルЬヲьи（蒼白的相片）
TTITLE9=瞳ゾФユヤх⑦Э（鑽石眼睛）
TTITLE10=Rock'n Rouge（搖擺①紅）
TTITLE11=гみЬソユヤэ⑦ヲ（心形耳環）
TTITLE12=SWEETY MEMORIES (Cinema Version)（甜蜜回憶）
TTITLE13=天使ソヨュ⑦ヱ（天使的媚眼）
TTITLE14=DANCING SHOES（跳舞鞋）
TTITLE15=q璃色ソ地球（琉璃色的地球）
TTITLE16=わゲシ、ネギ逢りペ…（我們定能重逢…）
TTITLE17=大切スやスギ（最重要的是你）
TTITLE18=パよみ度、初バろヘ（從頭再來吧）
EXTD=
EXTT0=
EXTT1=
EXTT2=
EXTT3=
EXTT4=
EXTT5=
EXTT6=
EXTT7=
EXTT8=
EXTT9=
EXTT10=
EXTT11=
EXTT12=
EXTT13=
EXTT14=
EXTT15=
EXTT16=
EXTT17=
EXTT18=
PLAYORDER=
